<svg width="105" height="462" viewBox="0 0 105 462" fill="none" xmlns="http://www.w3.org/2000/svg">
    <path fill-rule="evenodd" clip-rule="evenodd"
        d="M89.8736 197.672C85.997 223.05 70.1795 243.377 60.9237 267.31C54.0898 284.98 46.0265 301.257 42.6022 319.899C33.98 366.837 68.4035 438.061 25.6814 459.163C-13.0356 478.287 -31.5672 395.08 -70.1749 375.604C-98.6307 361.249 -135.372 379.756 -163.054 363.952C-195.826 345.241 -246.403 317.073 -236.429 280.683C-224.365 236.666 -159.423 237.146 -121.407 211.999C-106.398 202.07 -88.2561 194.347 -80.994 177.862C-56.9021 123.173 -81.3147 42.8196 -32.0326 9.11975C5.66814 -16.6606 67.8831 20.6255 92.7346 59.0632C118.354 98.6881 96.9944 151.057 89.8736 197.672Z"
        fill="url(#paint0_linear_10_12)" />
    <defs>
        <linearGradient id="paint0_linear_10_12" x1="55.0259" y1="446.022" x2="-104.901" y2="42.5547"
            gradientUnits="userSpaceOnUse">
            <stop stop-color="#A95F08" />
            <stop offset="0.808771" stop-color="white" stop-opacity="0" />
        </linearGradient>
    </defs>
</svg>